{"glyphs":{":":{"x_min":0,"x_max":266,"ha":266,"o":"m 74 52 q 74 84 89 101 q 104 118 132 118 q 160 118 176 101 q 192 84 192 52 q 192 20 176 3 q 160 -14 132 -14 q 107 -14 91 1 q 74 17 74 52 z m 74 483 q 74 549 132 549 q 192 549 192 483 q 192 451 176 434 q 160 417 132 417 q 107 417 91 432 q 74 448 74 483 z"},"$":{"x_min":0,"x_max":572,"ha":572,"o":"m 506 219 q 506 153 456 110 q 406 66 317 55 l 317 -58 l 254 -58 l 254 51 q 199 51 148 59 q 97 68 64 83 l 64 159 q 104 141 157 130 q 210 118 254 118 l 254 333 q 154 365 114 407 q 73 449 73 515 q 73 579 123 620 q 172 661 254 670 l 254 759 l 317 759 l 317 671 q 407 668 490 635 l 465 571 q 392 600 317 605 l 317 393 q 394 369 432 345 q 470 322 488 292 q 506 262 506 219 z m 423 213 q 423 248 401 270 q 379 292 317 313 l 317 123 q 423 138 423 213 z m 156 516 q 156 479 178 457 q 200 434 254 414 l 254 603 q 206 595 181 573 q 156 550 156 516 z"},"?":{"x_min":0,"x_max":429,"ha":429,"o":"m 141 197 l 141 223 q 141 280 159 317 q 176 354 224 395 q 291 451 308 479 q 325 508 325 548 q 325 598 293 625 q 261 652 201 652 q 163 652 126 643 q 89 634 42 610 l 13 676 q 105 724 206 724 q 299 724 351 678 q 403 632 403 549 q 403 513 393 486 q 384 459 365 435 q 347 411 285 357 q 236 315 220 287 q 204 259 204 213 l 204 197 z m 117 52 q 117 118 176 118 q 204 118 219 101 q 235 84 235 52 q 235 21 219 3 q 204 -14 176 -14 q 150 -14 134 1 q 117 17 117 52 z"},"<":{"x_min":0,"x_max":572,"ha":572,"o":"m 520 118 l 51 324 l 51 372 l 520 606 l 520 533 l 138 352 l 520 192 z"},"'":{"x_min":0,"x_max":221,"ha":221,"o":"m 156 714 l 136 456 l 85 456 l 65 714 z"},"=":{"x_min":0,"x_max":572,"ha":572,"o":"m 58 419 l 58 486 l 512 486 l 512 419 z m 58 219 l 58 286 l 512 286 l 512 219 z"},"a":{"x_min":0,"x_max":556,"ha":556,"o":"m 415 0 l 399 76 l 395 76 q 355 26 315 8 q 275 -10 216 -10 q 136 -10 91 31 q 46 72 46 148 q 46 310 305 318 l 396 321 l 396 354 q 396 417 369 447 q 342 477 282 477 q 215 477 131 436 l 106 498 q 146 520 193 532 q 240 544 287 544 q 383 544 429 501 q 475 459 475 365 l 475 0 z m 232 57 q 308 57 351 99 q 394 140 394 215 l 394 263 l 313 260 q 216 256 174 230 q 131 203 131 147 q 131 103 157 80 q 184 57 232 57 z"},"L":{"x_min":0,"x_max":519,"ha":519,"o":"m 98 0 l 98 714 l 181 714 l 181 75 l 496 75 l 496 0 z"},"3":{"x_min":0,"x_max":572,"ha":572,"o":"m 491 546 q 491 478 453 434 q 415 391 344 376 l 344 372 q 430 361 472 317 q 513 273 513 202 q 513 100 442 45 q 372 -10 241 -10 q 185 -10 137 -1 q 90 7 46 29 l 46 106 q 92 83 145 71 q 197 59 244 59 q 429 59 429 204 q 429 334 225 334 l 155 334 l 155 404 l 226 404 q 310 404 358 441 q 407 478 407 543 q 407 595 371 625 q 335 655 274 655 q 227 655 186 642 q 144 629 91 595 l 50 650 q 94 685 151 704 q 208 724 272 724 q 376 724 434 677 q 491 629 491 546 z"},";":{"x_min":0,"x_max":266,"ha":266,"o":"m 171 116 l 178 105 q 166 56 142 -9 q 118 -73 92 -129 l 31 -129 q 44 -78 60 -3 q 76 71 82 116 z m 72 483 q 72 549 130 549 q 190 549 190 483 q 190 451 174 434 q 158 417 130 417 q 102 417 87 434 q 72 451 72 483 z"},"J":{"x_min":0,"x_max":267,"ha":267,"o":"m -6 -188 q -52 -188 -78 -175 l -78 -104 q -43 -114 -6 -114 q 42 -114 68 -84 q 93 -55 93 0 l 93 714 l 176 714 l 176 7 q 176 -86 129 -137 q 82 -188 -6 -188 z"},"V":{"x_min":0,"x_max":595,"ha":595,"o":"m 506 714 l 595 714 l 338 0 l 256 0 l 0 714 l 88 714 l 252 252 q 280 172 297 97 q 314 176 343 255 z"},"\"":{"x_min":0,"x_max":401,"ha":401,"o":"m 156 714 l 136 456 l 85 456 l 65 714 z m 336 714 l 316 456 l 265 456 l 245 714 z"},"7":{"x_min":0,"x_max":572,"ha":572,"o":"m 139 0 l 435 639 l 46 639 l 46 714 l 521 714 l 521 649 l 229 0 z"},"S":{"x_min":0,"x_max":549,"ha":549,"o":"m 501 190 q 501 96 433 43 q 364 -10 247 -10 q 120 -10 52 23 l 52 103 q 96 84 147 74 q 199 63 250 63 q 333 63 375 94 q 417 126 417 182 q 417 219 402 243 q 387 267 352 287 q 317 307 246 332 q 146 368 104 417 q 61 465 61 544 q 61 626 123 675 q 185 724 287 724 q 394 724 483 685 l 457 613 q 369 650 285 650 q 219 650 182 622 q 145 593 145 543 q 145 506 159 482 q 172 458 205 439 q 237 419 304 395 q 417 355 459 309 q 501 263 501 190 z"},"}":{"x_min":0,"x_max":379,"ha":379,"o":"m 255 281 q 146 300 146 405 l 146 549 q 146 643 35 646 l 35 714 q 125 714 177 671 q 228 629 228 554 l 228 405 q 228 357 257 335 q 286 313 349 312 l 349 243 q 290 243 259 221 q 228 200 228 149 l 228 1 q 228 -74 178 -115 q 128 -157 35 -158 l 35 -90 q 89 -89 118 -66 q 146 -44 146 6 l 146 151 q 146 207 173 236 q 200 265 255 275 z"},"Z":{"x_min":0,"x_max":571,"ha":571,"o":"m 531 0 l 40 0 l 40 65 l 419 639 l 52 639 l 52 714 l 520 714 l 520 649 l 141 75 l 531 75 z"},"x":{"x_min":0,"x_max":524,"ha":524,"o":"m 215 274 l 29 535 l 121 535 l 262 330 l 403 535 l 494 535 l 308 274 l 504 0 l 412 0 l 262 217 l 111 0 l 19 0 z"},")":{"x_min":0,"x_max":296,"ha":296,"o":"m 256 274 q 256 146 218 35 q 180 -76 109 -158 l 31 -158 q 99 -66 135 46 q 171 158 171 275 q 171 394 135 507 q 100 620 30 714 l 109 714 q 181 628 218 515 q 256 402 256 274 z"},"&":{"x_min":0,"x_max":730,"ha":730,"o":"m 202 572 q 202 538 220 508 q 237 477 280 434 q 343 471 367 502 q 392 533 392 573 q 392 611 367 635 q 342 658 300 658 q 256 658 229 635 q 202 611 202 572 z m 278 63 q 396 63 473 138 l 260 345 q 206 312 183 290 q 161 269 150 244 q 139 219 139 187 q 139 130 177 96 q 215 63 278 63 z m 55 185 q 55 249 89 297 q 123 346 211 396 q 169 442 155 466 q 140 490 131 516 q 122 542 122 570 q 122 643 170 684 q 218 725 303 725 q 382 725 428 684 q 473 644 473 571 q 473 519 440 474 q 407 430 330 385 l 529 194 q 556 224 573 265 q 589 306 600 354 l 682 354 q 649 214 582 142 l 728 0 l 616 0 l 526 87 q 468 35 409 13 q 349 -10 276 -10 q 171 -10 113 42 q 55 94 55 185 z"},"_":{"x_min":0,"x_max":448,"ha":448,"o":"m 450 -154 l -2 -154 l -2 -90 l 450 -90 z"},"v":{"x_min":0,"x_max":501,"ha":501,"o":"m 203 0 l 0 535 l 87 535 l 202 218 q 241 106 248 73 l 252 73 q 257 99 286 180 q 314 262 414 535 l 501 535 l 298 0 z"},"O":{"x_min":0,"x_max":779,"ha":779,"o":"m 718 358 q 718 187 631 88 q 544 -10 390 -10 q 232 -10 147 87 q 61 183 61 359 q 61 533 147 629 q 233 725 391 725 q 545 725 631 627 q 718 530 718 358 z m 149 358 q 149 213 211 138 q 272 63 390 63 q 509 63 569 138 q 630 212 630 358 q 630 502 570 576 q 509 651 391 651 q 272 651 211 576 q 149 501 149 358 z"},"(":{"x_min":0,"x_max":296,"ha":296,"o":"m 40 274 q 40 403 78 516 q 116 629 187 714 l 266 714 q 196 620 160 507 q 125 394 125 275 q 125 158 161 46 q 197 -66 265 -158 l 187 -158 q 115 -75 78 36 q 40 146 40 274 z"},"C":{"x_min":0,"x_max":631,"ha":631,"o":"m 404 650 q 286 650 218 572 q 150 493 150 357 q 150 217 216 140 q 281 64 403 64 q 478 64 573 91 l 573 18 q 499 -10 390 -10 q 232 -10 147 86 q 61 182 61 358 q 61 468 102 551 q 144 634 221 679 q 299 724 405 724 q 517 724 601 683 l 566 612 q 485 650 404 650 z"},"W":{"x_min":0,"x_max":926,"ha":926,"o":"m 721 0 l 639 0 l 495 478 q 485 510 472 558 q 459 606 459 616 q 448 552 425 475 l 285 0 l 203 0 l 13 714 l 101 714 l 214 273 q 237 180 248 105 q 261 194 287 280 l 415 714 l 503 714 l 637 276 q 661 200 677 105 q 686 174 712 274 l 824 714 l 912 714 z"},"A":{"x_min":0,"x_max":633,"ha":633,"o":"m 547 0 l 458 227 l 172 227 l 84 0 l 0 0 l 282 717 l 352 717 l 633 0 z m 432 302 l 349 523 q 333 565 316 626 q 305 579 285 523 l 201 302 z"},"f":{"x_min":0,"x_max":339,"ha":339,"o":"m 327 472 l 191 472 l 191 0 l 110 0 l 110 472 l 14 472 l 14 509 l 110 538 l 110 568 q 110 765 282 765 q 325 765 382 748 l 361 683 q 314 698 281 698 q 235 698 213 668 q 191 637 191 570 l 191 535 l 327 535 z"},"Q":{"x_min":0,"x_max":779,"ha":779,"o":"m 718 358 q 718 221 663 130 q 607 39 507 7 l 677 -170 l 556 -170 l 417 -9 l 390 -10 q 232 -10 147 87 q 61 183 61 359 q 61 533 147 629 q 233 725 391 725 q 545 725 631 627 q 718 530 718 358 z m 149 358 q 149 213 211 138 q 272 63 390 63 q 509 63 569 138 q 630 212 630 358 q 630 502 570 576 q 509 651 391 651 q 272 651 211 576 q 149 501 149 358 z"},"w":{"x_min":0,"x_max":778,"ha":778,"o":"m 523 0 l 425 314 q 416 343 390 445 l 386 445 q 367 359 352 313 l 251 0 l 157 0 l 11 535 l 96 535 q 148 333 175 228 q 202 123 206 86 l 210 86 q 215 114 227 158 q 239 202 248 228 l 346 535 l 434 535 l 530 228 q 557 144 567 87 l 571 87 q 573 104 581 141 q 590 178 683 535 l 767 535 l 619 0 z"},"-":{"x_min":0,"x_max":322,"ha":322,"o":"m 41 231 l 41 305 l 281 305 l 281 231 z"},"E":{"x_min":0,"x_max":556,"ha":556,"o":"m 496 0 l 98 0 l 98 714 l 496 714 l 496 640 l 181 640 l 181 410 l 477 410 l 477 337 l 181 337 l 181 74 l 496 74 z"},"s":{"x_min":0,"x_max":477,"ha":477,"o":"m 431 146 q 431 71 375 31 q 320 -10 219 -10 q 113 -10 53 24 l 53 99 q 92 80 136 68 q 180 57 221 57 q 285 57 319 77 q 353 98 353 139 q 353 170 326 193 q 299 215 220 245 q 146 273 114 294 q 83 314 67 341 q 52 367 52 404 q 52 469 105 507 q 158 545 251 545 q 337 545 420 510 l 391 444 q 311 477 245 477 q 188 477 158 459 q 129 441 129 409 q 129 388 140 373 q 151 357 175 344 q 200 330 269 304 q 364 270 398 234 q 431 199 431 146 z"},">":{"x_min":0,"x_max":572,"ha":572,"o":"m 51 192 l 433 351 l 51 533 l 51 606 l 520 372 l 520 324 l 51 118 z"},"l":{"x_min":0,"x_max":253,"ha":253,"o":"m 167 0 l 86 0 l 86 760 l 167 760 z"},"8":{"x_min":0,"x_max":572,"ha":572,"o":"m 285 724 q 383 724 440 679 q 497 633 497 553 q 497 500 464 457 q 432 414 360 378 q 447 336 483 291 q 520 245 520 185 q 520 96 458 43 q 396 -10 288 -10 q 174 -10 112 40 q 51 90 51 182 q 51 305 200 373 q 133 411 104 455 q 74 500 74 554 q 74 632 132 678 q 189 724 285 724 z m 131 180 q 131 122 172 89 q 212 56 286 56 q 359 56 399 90 q 440 125 440 184 q 440 231 402 268 q 364 305 269 340 q 196 309 164 271 q 131 233 131 180 z m 284 658 q 223 658 188 629 q 154 600 154 551 q 154 506 183 474 q 211 441 289 409 q 359 438 388 472 q 417 506 417 551 q 417 600 382 629 q 346 658 284 658 z"},"\\":{"x_min":0,"x_max":367,"ha":367,"o":"m 91 714 l 358 0 l 277 0 l 11 714 z"},"e":{"x_min":0,"x_max":561,"ha":561,"o":"m 312 -10 q 193 -10 125 62 q 56 135 56 263 q 56 393 120 469 q 184 545 291 545 q 392 545 450 479 q 509 413 509 304 l 509 253 l 140 253 q 143 159 188 110 q 233 61 315 61 q 401 61 486 97 l 486 25 q 443 6 405 -2 q 366 -10 312 -10 z m 290 477 q 226 477 187 435 q 149 393 142 319 l 422 319 q 422 396 388 436 q 354 477 290 477 z"},"b":{"x_min":0,"x_max":613,"ha":613,"o":"m 335 544 q 440 544 499 472 q 557 400 557 268 q 557 136 498 63 q 439 -10 335 -10 q 283 -10 240 10 q 196 29 167 69 l 161 69 l 144 0 l 86 0 l 86 760 l 167 760 l 167 575 q 167 513 163 464 l 167 464 q 224 544 335 544 z m 323 476 q 240 476 204 428 q 167 381 167 268 q 167 155 205 107 q 242 58 325 58 q 400 58 437 113 q 473 167 473 269 q 473 374 437 425 q 400 476 323 476 z"},"%":{"x_min":0,"x_max":823,"ha":823,"o":"m 118 501 q 118 418 136 376 q 154 335 195 335 q 275 335 275 501 q 275 666 195 666 q 154 666 136 625 q 118 584 118 501 z m 342 501 q 342 390 304 333 q 267 276 195 276 q 126 276 89 334 q 51 392 51 501 q 51 612 87 668 q 124 724 195 724 q 266 724 304 666 q 342 608 342 501 z m 548 215 q 548 131 566 90 q 584 49 625 49 q 666 49 686 90 q 705 130 705 215 q 705 298 686 339 q 666 379 625 379 q 584 379 566 339 q 548 298 548 215 z m 772 215 q 772 104 735 47 q 697 -10 625 -10 q 556 -10 518 48 q 481 106 481 215 q 481 326 517 382 q 554 438 625 438 q 694 438 733 381 q 772 323 772 215 z m 646 714 l 250 0 l 178 0 l 574 714 z"},"m":{"x_min":0,"x_max":930,"ha":930,"o":"m 768 0 l 768 348 q 768 412 741 444 q 713 476 656 476 q 580 476 544 433 q 508 389 508 299 l 508 0 l 427 0 l 427 348 q 427 412 399 444 q 372 476 314 476 q 238 476 202 430 q 167 385 167 281 l 167 0 l 86 0 l 86 535 l 152 535 l 165 462 l 169 462 q 192 501 234 523 q 275 545 327 545 q 453 545 491 454 l 495 454 q 519 496 564 521 q 610 545 668 545 q 759 545 804 498 q 849 452 849 349 l 849 0 z"},"#":{"x_min":0,"x_max":646,"ha":646,"o":"m 479 439 l 447 273 l 585 273 l 585 210 l 435 210 l 394 0 l 327 0 l 368 210 l 220 210 l 180 0 l 114 0 l 153 210 l 25 210 l 25 273 l 165 273 l 198 439 l 63 439 l 63 501 l 209 501 l 249 714 l 317 714 l 277 501 l 426 501 l 467 714 l 532 714 l 491 501 l 620 501 l 620 439 z m 232 273 l 380 273 l 412 439 l 264 439 z"},",":{"x_min":0,"x_max":245,"ha":245,"o":"m 171 116 l 178 105 q 166 56 142 -9 q 118 -73 92 -129 l 31 -129 q 44 -78 60 -3 q 76 71 82 116 z"},"n":{"x_min":0,"x_max":614,"ha":614,"o":"m 452 0 l 452 346 q 452 412 422 444 q 393 476 329 476 q 245 476 206 431 q 167 385 167 281 l 167 0 l 86 0 l 86 535 l 152 535 l 165 462 l 169 462 q 194 501 239 523 q 284 545 339 545 q 436 545 484 498 q 533 452 533 349 l 533 0 z"},"h":{"x_min":0,"x_max":614,"ha":614,"o":"m 452 0 l 452 346 q 452 412 422 444 q 393 476 329 476 q 245 476 206 430 q 167 384 167 280 l 167 0 l 86 0 l 86 760 l 167 760 l 167 530 q 167 488 163 461 l 168 461 q 192 500 236 522 q 280 544 337 544 q 435 544 484 497 q 533 451 533 349 l 533 0 z"},"z":{"x_min":0,"x_max":468,"ha":468,"o":"m 428 0 l 40 0 l 40 55 l 332 472 l 58 472 l 58 535 l 421 535 l 421 472 l 133 63 l 428 63 z"},"B":{"x_min":0,"x_max":648,"ha":648,"o":"m 98 714 l 300 714 q 442 714 505 671 q 569 629 569 537 q 569 474 533 432 q 498 391 430 379 l 430 374 q 593 346 593 203 q 593 107 528 54 q 463 0 347 0 l 98 0 z m 181 408 l 318 408 q 406 408 444 436 q 483 463 483 529 q 483 589 440 615 q 397 642 303 642 l 181 642 z m 181 338 l 181 71 l 330 71 q 417 71 460 104 q 504 138 504 209 q 504 275 459 307 q 415 338 323 338 z"},"K":{"x_min":0,"x_max":614,"ha":614,"o":"m 614 0 l 516 0 l 256 346 l 181 280 l 181 0 l 98 0 l 98 714 l 181 714 l 181 360 l 505 714 l 603 714 l 316 404 z"},"R":{"x_min":0,"x_max":618,"ha":618,"o":"m 181 297 l 181 0 l 98 0 l 98 714 l 294 714 q 425 714 488 664 q 551 613 551 512 q 551 371 407 321 l 601 0 l 503 0 l 330 297 z m 181 368 l 295 368 q 383 368 424 403 q 465 438 465 508 q 465 579 423 610 q 381 641 289 641 l 181 641 z"},"T":{"x_min":0,"x_max":553,"ha":553,"o":"m 318 0 l 235 0 l 235 640 l 9 640 l 9 714 l 544 714 l 544 640 l 318 640 z"},"P":{"x_min":0,"x_max":602,"ha":602,"o":"m 551 506 q 551 397 477 339 q 403 281 265 281 l 181 281 l 181 0 l 98 0 l 98 714 l 283 714 q 551 714 551 506 z m 181 352 l 256 352 q 366 352 416 388 q 465 423 465 502 q 465 573 418 607 q 372 642 274 642 l 181 642 z"},"|":{"x_min":0,"x_max":551,"ha":551,"o":"m 241 760 l 310 760 l 310 -242 l 241 -242 z"},"t":{"x_min":0,"x_max":353,"ha":353,"o":"m 259 57 q 280 57 300 60 q 320 63 332 67 l 332 5 q 319 -1 293 -6 q 268 -10 247 -10 q 92 -10 92 154 l 92 472 l 15 472 l 15 511 l 92 545 l 126 659 l 173 659 l 173 535 l 328 535 l 328 472 l 173 472 l 173 157 q 173 109 196 83 q 219 57 259 57 z"},"M":{"x_min":0,"x_max":903,"ha":903,"o":"m 414 0 l 172 633 l 168 633 q 175 558 175 454 l 175 0 l 98 0 l 98 714 l 223 714 l 449 125 l 453 125 l 681 714 l 805 714 l 805 0 l 722 0 l 722 460 q 722 539 729 632 l 725 632 l 481 0 z"},"g":{"x_min":0,"x_max":548,"ha":548,"o":"m 524 535 l 524 484 l 425 472 q 438 455 449 427 q 460 400 460 365 q 460 287 406 240 q 353 193 259 193 q 235 193 214 197 q 162 169 162 128 q 162 106 180 95 q 198 85 242 85 l 337 85 q 424 85 470 48 q 517 12 517 -58 q 517 -147 446 -194 q 375 -240 238 -240 q 133 -240 76 -201 q 19 -162 19 -91 q 19 -42 50 -6 q 82 29 138 42 q 118 51 104 71 q 90 90 90 116 q 90 146 105 167 q 121 189 155 210 q 113 227 87 268 q 61 309 61 362 q 61 450 114 497 q 167 545 263 545 q 305 545 339 535 z m 97 -90 q 97 -133 134 -156 q 170 -178 239 -178 q 341 -178 390 -148 q 439 -117 439 -65 q 439 -21 412 -5 q 385 12 311 12 l 214 12 q 159 12 128 -14 q 97 -41 97 -90 z m 141 364 q 141 308 173 279 q 205 250 261 250 q 380 250 380 365 q 380 486 260 486 q 203 486 172 455 q 141 424 141 364 z"},"j":{"x_min":0,"x_max":253,"ha":253,"o":"m 21 -240 q -25 -240 -54 -228 l -54 -162 q -21 -172 12 -172 q 50 -172 68 -151 q 86 -130 86 -88 l 86 535 l 167 535 l 167 -82 q 167 -240 21 -240 z m 79 680 q 79 708 93 721 q 106 734 127 734 q 146 734 161 721 q 175 708 175 680 q 175 653 161 639 q 146 626 127 626 q 106 626 93 639 q 79 653 79 680 z"},"i":{"x_min":0,"x_max":253,"ha":253,"o":"m 167 0 l 86 0 l 86 535 l 167 535 z m 79 680 q 79 708 93 721 q 106 734 127 734 q 146 734 161 721 q 175 708 175 680 q 175 653 161 639 q 146 626 127 626 q 106 626 93 639 q 79 653 79 680 z"},"y":{"x_min":0,"x_max":504,"ha":504,"o":"m 1 535 l 88 535 l 205 230 q 244 125 253 79 l 257 79 q 263 104 283 164 q 304 225 416 535 l 503 535 l 273 -74 q 239 -165 193 -202 q 147 -240 81 -240 q 44 -240 8 -232 l 8 -167 q 35 -173 68 -173 q 151 -173 187 -79 l 217 -3 z"},"@":{"x_min":0,"x_max":899,"ha":899,"o":"m 840 356 q 840 287 818 229 q 797 171 758 140 q 719 108 668 108 q 626 108 597 133 q 568 159 563 198 l 559 198 q 540 156 503 132 q 467 108 417 108 q 344 108 302 158 q 261 208 261 294 q 261 394 319 456 q 376 518 470 518 q 503 518 545 512 q 587 506 621 495 l 609 266 l 609 255 q 609 168 674 168 q 718 168 746 220 q 774 273 774 357 q 774 445 738 512 q 702 578 635 614 q 568 650 482 650 q 373 650 292 605 q 212 560 169 476 q 127 392 127 282 q 127 133 206 53 q 284 -27 432 -27 q 535 -27 645 15 l 645 -50 q 551 -91 432 -91 q 255 -91 157 7 q 59 104 59 279 q 59 406 111 505 q 164 604 260 658 q 357 713 482 713 q 587 713 669 669 q 750 625 795 543 q 840 462 840 356 z m 335 292 q 335 168 430 168 q 531 168 540 321 l 547 448 q 512 458 470 458 q 407 458 371 414 q 335 370 335 292 z"},".":{"x_min":0,"x_max":266,"ha":266,"o":"m 74 52 q 74 84 89 101 q 104 118 132 118 q 160 118 176 101 q 192 84 192 52 q 192 20 176 3 q 160 -14 132 -14 q 107 -14 91 1 q 74 17 74 52 z"},"p":{"x_min":0,"x_max":613,"ha":613,"o":"m 335 -10 q 283 -10 240 10 q 196 29 167 69 l 161 69 q 167 22 167 -20 l 167 -240 l 86 -240 l 86 535 l 152 535 l 163 462 l 167 462 q 198 506 240 525 q 281 545 335 545 q 441 545 499 472 q 557 399 557 268 q 557 136 498 63 q 439 -10 335 -10 z m 323 476 q 241 476 205 431 q 168 385 167 286 l 167 268 q 167 155 205 107 q 242 58 325 58 q 395 58 434 114 q 473 170 473 269 q 473 369 434 423 q 395 476 323 476 z"},"X":{"x_min":0,"x_max":577,"ha":577,"o":"m 573 0 l 479 0 l 287 314 l 92 0 l 4 0 l 241 373 l 20 714 l 112 714 l 289 431 l 468 714 l 556 714 l 335 376 z"},"*":{"x_min":0,"x_max":552,"ha":552,"o":"m 321 760 l 300 567 l 494 621 l 507 532 l 321 517 l 442 358 l 358 312 l 272 489 l 194 312 l 108 358 l 226 517 l 42 532 l 56 621 l 247 567 l 226 760 z"},"Y":{"x_min":0,"x_max":560,"ha":560,"o":"m 280 357 l 470 714 l 560 714 l 322 277 l 322 0 l 238 0 l 238 273 l 0 714 l 91 714 z"},"c":{"x_min":0,"x_max":476,"ha":476,"o":"m 300 -10 q 184 -10 120 62 q 56 133 56 264 q 56 398 121 472 q 186 545 305 545 q 344 545 382 537 q 421 528 443 517 l 418 448 q 391 459 359 466 q 328 473 303 473 q 140 473 140 265 q 140 167 180 114 q 220 61 298 61 q 365 61 435 90 l 435 18 q 381 -10 300 -10 z"},"!":{"x_min":0,"x_max":267,"ha":267,"o":"m 159 197 l 108 197 l 83 714 l 184 714 z m 74 52 q 74 118 133 118 q 161 118 177 101 q 192 84 192 52 q 192 21 176 3 q 161 -14 133 -14 q 107 -14 91 1 q 74 17 74 52 z"},"/":{"x_min":0,"x_max":367,"ha":367,"o":"m 357 714 l 91 0 l 10 0 l 276 714 z"},"[":{"x_min":0,"x_max":329,"ha":329,"o":"m 304 -158 l 81 -158 l 81 714 l 304 714 l 304 645 l 163 645 l 163 -89 l 304 -89 z"},"6":{"x_min":0,"x_max":572,"ha":572,"o":"m 57 305 q 57 516 139 620 q 221 724 381 724 q 436 724 468 715 l 468 645 q 430 657 382 657 q 267 657 207 586 q 146 514 140 361 l 146 361 q 200 445 316 445 q 412 445 468 387 q 523 329 523 229 q 523 118 462 54 q 401 -10 298 -10 q 187 -10 122 73 q 57 157 57 305 z m 297 59 q 366 59 405 103 q 443 146 443 229 q 443 300 407 340 q 372 381 301 381 q 257 381 220 363 q 184 345 162 313 q 140 281 140 247 q 140 197 160 153 q 179 110 215 84 q 251 59 297 59 z"},"r":{"x_min":0,"x_max":408,"ha":408,"o":"m 330 545 q 366 545 394 539 l 383 464 q 350 471 324 471 q 259 471 213 418 q 167 366 167 287 l 167 0 l 86 0 l 86 535 l 153 535 l 162 436 l 166 436 q 196 488 238 517 q 280 545 330 545 z"},"2":{"x_min":0,"x_max":572,"ha":572,"o":"m 518 0 l 49 0 l 49 70 l 237 259 q 323 346 350 383 q 377 420 391 455 q 405 490 405 531 q 405 588 370 621 q 335 655 274 655 q 229 655 190 640 q 150 625 101 587 l 58 642 q 157 724 273 724 q 374 724 431 673 q 488 621 488 534 q 488 466 450 400 q 412 333 307 232 l 151 79 l 151 75 l 518 75 z"},"{":{"x_min":0,"x_max":379,"ha":379,"o":"m 232 6 q 232 -44 260 -66 q 289 -89 344 -90 l 344 -158 q 251 -157 201 -116 q 150 -74 150 1 l 150 149 q 150 200 119 221 q 88 243 30 243 l 30 312 q 93 313 122 335 q 150 358 150 405 l 150 554 q 150 630 203 672 q 255 714 344 714 l 344 646 q 232 643 232 549 l 232 405 q 232 300 123 281 l 123 275 q 232 256 232 151 z"},"9":{"x_min":0,"x_max":572,"ha":572,"o":"m 518 409 q 518 -10 194 -10 q 137 -10 104 0 l 104 70 q 143 57 193 57 q 310 57 370 130 q 430 202 435 352 l 429 352 q 402 312 358 290 q 313 269 258 269 q 163 269 107 326 q 52 382 52 484 q 52 595 114 660 q 176 724 278 724 q 351 724 405 687 q 459 649 489 578 q 518 506 518 409 z m 278 655 q 208 655 170 610 q 132 565 132 485 q 132 415 167 374 q 202 334 274 334 q 318 334 356 352 q 393 370 415 401 q 436 433 436 467 q 436 518 416 562 q 396 605 360 630 q 324 655 278 655 z"}," ":{"x_min":0,"x_max":260,"ha":260,"o":""},"I":{"x_min":0,"x_max":279,"ha":279,"o":"m 98 0 l 98 714 l 181 714 l 181 0 z"},"H":{"x_min":0,"x_max":738,"ha":738,"o":"m 640 0 l 557 0 l 557 336 l 181 336 l 181 0 l 98 0 l 98 714 l 181 714 l 181 410 l 557 410 l 557 714 l 640 714 z"},"4":{"x_min":0,"x_max":572,"ha":572,"o":"m 552 164 l 446 164 l 446 0 l 368 0 l 368 164 l 21 164 l 21 235 l 360 718 l 446 718 l 446 238 l 552 238 z m 368 238 l 368 475 q 368 545 373 633 l 369 633 q 346 586 325 555 l 102 238 z"},"~":{"x_min":0,"x_max":572,"ha":572,"o":"m 165 348 q 139 348 108 332 q 77 315 51 289 l 51 363 q 100 416 170 416 q 203 416 231 409 q 258 402 302 384 q 334 370 358 364 q 382 357 405 357 q 431 357 462 373 q 494 388 520 416 l 520 343 q 470 289 401 289 q 366 289 335 297 q 304 305 269 321 q 232 336 210 342 q 188 348 165 348 z"},"D":{"x_min":0,"x_max":729,"ha":729,"o":"m 668 364 q 668 187 572 94 q 476 0 296 0 l 98 0 l 98 714 l 317 714 q 483 714 576 622 q 668 529 668 364 z m 580 361 q 580 500 510 571 q 440 642 302 642 l 181 642 l 181 72 l 282 72 q 431 72 505 145 q 580 218 580 361 z"},"^":{"x_min":0,"x_max":542,"ha":542,"o":"m 24 269 l 236 719 l 284 719 l 517 269 l 443 269 l 261 633 l 98 269 z"},"0":{"x_min":0,"x_max":572,"ha":572,"o":"m 522 358 q 522 173 464 82 q 405 -10 285 -10 q 170 -10 110 84 q 50 177 50 358 q 50 544 108 635 q 166 725 285 725 q 401 725 462 631 q 522 537 522 358 z m 132 358 q 132 202 168 131 q 205 60 285 60 q 366 60 403 132 q 439 204 439 358 q 439 512 403 583 q 366 655 285 655 q 205 655 168 584 q 132 514 132 358 z"},"F":{"x_min":0,"x_max":516,"ha":516,"o":"m 181 0 l 98 0 l 98 714 l 496 714 l 496 640 l 181 640 l 181 379 l 477 379 l 477 305 l 181 305 z"},"`":{"x_min":0,"x_max":577,"ha":577,"o":"m 384 606 l 330 606 q 298 631 255 678 q 211 725 192 756 l 192 766 l 291 766 q 307 732 334 688 q 362 644 384 618 z"},"k":{"x_min":0,"x_max":525,"ha":525,"o":"m 166 274 q 187 304 230 352 l 403 535 l 499 535 l 282 307 l 514 0 l 416 0 l 227 253 l 166 200 l 166 0 l 86 0 l 86 760 l 166 760 l 166 357 q 166 330 162 274 z"},"u":{"x_min":0,"x_max":614,"ha":614,"o":"m 162 535 l 162 188 q 162 123 192 90 q 222 58 285 58 q 369 58 408 104 q 447 150 447 254 l 447 535 l 528 535 l 528 0 l 461 0 l 449 72 l 445 72 q 420 32 376 11 q 332 -10 275 -10 q 177 -10 129 37 q 80 83 80 185 l 80 535 z"},"]":{"x_min":0,"x_max":329,"ha":329,"o":"m 25 -89 l 166 -89 l 166 645 l 25 645 l 25 714 l 248 714 l 248 -158 l 25 -158 z"},"U":{"x_min":0,"x_max":728,"ha":728,"o":"m 637 714 l 637 252 q 637 130 563 60 q 490 -10 361 -10 q 232 -10 161 61 q 91 131 91 254 l 91 714 l 174 714 l 174 248 q 174 159 223 111 q 271 63 366 63 q 457 63 505 111 q 554 159 554 249 l 554 714 z"},"o":{"x_min":0,"x_max":604,"ha":604,"o":"m 548 268 q 548 137 482 64 q 416 -10 300 -10 q 228 -10 172 24 q 117 58 86 121 q 56 184 56 268 q 56 399 122 472 q 187 545 303 545 q 416 545 482 470 q 548 396 548 268 z m 140 268 q 140 166 181 112 q 222 58 302 58 q 381 58 423 112 q 464 165 464 268 q 464 370 423 423 q 381 476 301 476 q 221 476 181 424 q 140 372 140 268 z"},"N":{"x_min":0,"x_max":754,"ha":754,"o":"m 656 0 l 561 0 l 171 599 l 167 599 q 175 494 175 406 l 175 0 l 98 0 l 98 714 l 192 714 l 581 117 l 585 117 q 584 130 581 202 q 577 273 578 304 l 578 714 l 656 714 z"},"+":{"x_min":0,"x_max":572,"ha":572,"o":"m 319 386 l 520 386 l 520 319 l 319 319 l 319 111 l 251 111 l 251 319 l 51 319 l 51 386 l 251 386 l 251 595 l 319 595 z"},"G":{"x_min":0,"x_max":728,"ha":728,"o":"m 412 374 l 655 374 l 655 27 q 598 9 540 0 q 481 -10 404 -10 q 242 -10 151 87 q 61 183 61 357 q 61 468 106 552 q 150 636 234 680 q 318 724 431 724 q 545 724 644 682 l 612 609 q 515 650 426 650 q 295 650 222 572 q 149 495 149 357 q 149 212 219 138 q 290 63 427 63 q 501 63 572 80 l 572 300 l 412 300 z"},"q":{"x_min":0,"x_max":613,"ha":613,"o":"m 288 58 q 369 58 406 102 q 443 145 446 248 l 446 266 q 446 378 408 428 q 370 477 287 477 q 216 477 178 422 q 140 366 140 265 q 140 164 177 111 q 215 58 288 58 z m 276 -10 q 172 -10 114 63 q 56 136 56 266 q 56 397 115 471 q 173 545 278 545 q 388 545 447 462 l 451 462 l 463 535 l 527 535 l 527 -240 l 446 -240 l 446 -11 q 446 38 451 72 l 445 72 q 389 -10 276 -10 z"},"d":{"x_min":0,"x_max":613,"ha":613,"o":"m 450 72 l 446 72 q 390 -10 278 -10 q 173 -10 115 62 q 56 134 56 266 q 56 398 115 472 q 173 545 278 545 q 387 545 445 466 l 451 466 l 448 504 l 446 542 l 446 760 l 527 760 l 527 0 l 461 0 z m 288 58 q 371 58 408 103 q 446 148 446 249 l 446 266 q 446 380 408 428 q 370 477 287 477 q 216 477 178 422 q 140 366 140 265 q 140 163 178 110 q 215 58 288 58 z"},"1":{"x_min":0,"x_max":572,"ha":572,"o":"m 349 0 l 270 0 l 270 509 q 270 572 274 629 q 264 619 251 607 q 238 596 135 512 l 92 568 l 281 714 l 349 714 z"},"5":{"x_min":0,"x_max":572,"ha":572,"o":"m 272 436 q 385 436 449 380 q 514 324 514 227 q 514 116 444 53 q 373 -10 249 -10 q 128 -10 65 29 l 65 107 q 99 85 150 73 q 201 60 250 60 q 336 60 384 101 q 431 141 431 218 q 431 367 248 367 q 202 367 124 353 l 82 380 l 109 714 l 464 714 l 464 639 l 178 639 l 160 425 q 216 436 272 436 z"}}}
